<svg width="126" height="27" viewBox="0 0 126 27" fill="none" xmlns="http://www.w3.org/2000/svg">
<path d="M0.672 26V0.943999H2.004V8.036C4.476 8.036 6.816 8.516 9.024 9.476C11.232 10.412 13.164 11.732 14.82 13.436C16.476 15.116 17.748 17.048 18.636 19.232V0.943999H19.968V26H18.636C18.636 23 17.892 20.228 16.404 17.684C14.916 15.116 12.888 13.088 10.32 11.6C7.776 10.112 5.004 9.368 2.004 9.368V26H0.672ZM36.9684 26.54C35.1444 26.54 33.4524 26.084 31.8924 25.172C30.3564 24.26 29.1324 23.036 28.2204 21.5C27.3084 19.94 26.8524 18.248 26.8524 16.424V0.943999H47.0844V16.424C47.0844 18.248 46.6284 19.94 45.7164 21.5C44.8044 23.036 43.5684 24.26 42.0084 25.172C40.4724 26.084 38.7924 26.54 36.9684 26.54ZM75.4249 26H51.8089L63.6169 0.403999L75.4249 26ZM53.8969 24.668H73.3369L63.6169 3.572L53.8969 24.668ZM97.8613 2.276H81.3733V0.943999H99.5893V26H80.9773V24.668L97.8613 2.276ZM98.2573 24.668V3.968L82.6333 24.668H98.2573ZM108.814 7.28V0.943999H125.014V7.28H117.562V19.664H125.014V26H108.814V19.664H116.266V7.28H108.814Z" fill="#14142B"/>
<path d="M0.672 26H0.172V26.5H0.672V26ZM0.672 0.943998V0.443998H0.172V0.943998H0.672ZM2.004 0.943998H2.504V0.443998H2.004V0.943998ZM2.004 8.036H1.504V8.536H2.004V8.036ZM9.024 9.476L8.82463 9.93455L8.82885 9.93634L9.024 9.476ZM14.82 13.436L14.4614 13.7845L14.4639 13.787L14.82 13.436ZM18.636 19.232L18.1728 19.4203L19.136 19.232H18.636ZM18.636 0.943998V0.443998H18.136V0.943998H18.636ZM19.968 0.943998H20.468V0.443998H19.968V0.943998ZM19.968 26V26.5H20.468V26H19.968ZM18.636 26H18.136V26.5H18.636V26ZM16.404 17.684L15.9714 17.9347L15.9724 17.9364L16.404 17.684ZM10.32 11.6L10.0676 12.0316L10.0693 12.0326L10.32 11.6ZM2.004 9.368V8.868H1.504V9.368H2.004ZM2.004 26V26.5H2.504V26H2.004ZM1.172 26V0.943998H0.172V26H1.172ZM0.672 1.444H2.004V0.443998H0.672V1.444ZM1.504 0.943998V8.036H2.504V0.943998H1.504ZM2.004 8.536C4.40929 8.536 6.68124 9.00262 8.82464 9.93453L9.22336 9.01746C6.95076 8.02937 4.54272 7.536 2.004 7.536V8.536ZM8.82885 9.93634C10.9761 10.8466 12.8523 12.1287 14.4614 13.7845L15.1786 13.0875C13.4757 11.3353 11.4879 9.97743 9.21915 9.01565L8.82885 9.93634ZM14.4639 13.787C16.0739 15.4203 17.3095 17.2971 18.1728 19.4203L19.0992 19.0437C18.1865 16.7989 16.8781 14.8117 15.1761 13.085L14.4639 13.787ZM19.136 19.232V0.943998H18.136V19.232H19.136ZM18.636 1.444H19.968V0.443998H18.636V1.444ZM19.468 0.943998V26H20.468V0.943998H19.468ZM19.968 25.5H18.636V26.5H19.968V25.5ZM19.136 26C19.136 22.9129 18.3692 20.0536 16.8356 17.4316L15.9724 17.9364C17.4148 20.4024 18.136 23.0871 18.136 26H19.136ZM16.8366 17.4333C15.3049 14.7898 13.2142 12.6991 10.5707 11.1674L10.0693 12.0326C12.5618 13.4769 14.5271 15.4422 15.9714 17.9347L16.8366 17.4333ZM10.5724 11.1684C7.95043 9.63477 5.09106 8.868 2.004 8.868V9.868C4.91694 9.868 7.60157 10.5892 10.0676 12.0316L10.5724 11.1684ZM1.504 9.368V26H2.504V9.368H1.504ZM2.004 25.5H0.672V26.5H2.004V25.5ZM31.8924 25.172L31.6372 25.6019L31.6401 25.6036L31.8924 25.172ZM28.2204 21.5L27.7888 21.7524L27.7905 21.7553L28.2204 21.5ZM26.8524 0.943998V0.443998H26.3524V0.943998H26.8524ZM47.0844 0.943998H47.5844V0.443998H47.0844V0.943998ZM45.7164 21.5L46.1464 21.7553L46.1481 21.7523L45.7164 21.5ZM42.0084 25.172L41.7561 24.7403L41.7532 24.7421L42.0084 25.172ZM36.9684 26.04C35.2323 26.04 33.6275 25.6071 32.1448 24.7404L31.6401 25.6036C33.2774 26.5608 35.0566 27.04 36.9684 27.04V26.04ZM32.1477 24.7421C30.6836 23.8728 29.5197 22.7088 28.6504 21.2447L27.7905 21.7553C28.7452 23.3632 30.0293 24.6472 31.6372 25.6019L32.1477 24.7421ZM28.6521 21.2477C27.7853 19.765 27.3524 18.1602 27.3524 16.424H26.3524C26.3524 18.3358 26.8316 20.115 27.7888 21.7523L28.6521 21.2477ZM27.3524 16.424V0.943998H26.3524V16.424H27.3524ZM26.8524 1.444H47.0844V0.443998H26.8524V1.444ZM46.5844 0.943998V16.424H47.5844V0.943998H46.5844ZM46.5844 16.424C46.5844 18.1602 46.1516 19.765 45.2848 21.2477L46.1481 21.7523C47.1053 20.115 47.5844 18.3358 47.5844 16.424H46.5844ZM45.2865 21.2447C44.4183 22.707 43.2438 23.8706 41.7561 24.7404L42.2608 25.6036C43.8931 24.6494 45.1906 23.365 46.1464 21.7553L45.2865 21.2447ZM41.7532 24.7421C40.2961 25.6072 38.7046 26.04 36.9684 26.04V27.04C38.8803 27.04 40.6488 26.5608 42.2637 25.6019L41.7532 24.7421ZM75.4249 26V26.5H76.2062L75.8789 25.7906L75.4249 26ZM51.8089 26L51.3549 25.7906L51.0276 26.5H51.8089V26ZM63.6169 0.403999L64.0709 0.194551L63.6169 -0.789614L63.1629 0.194551L63.6169 0.403999ZM53.8969 24.668L53.4428 24.4588L53.116 25.168H53.8969V24.668ZM73.3369 24.668V25.168H74.1178L73.791 24.4588L73.3369 24.668ZM63.6169 3.572L64.071 3.36277L63.6169 2.37717L63.1628 3.36277L63.6169 3.572ZM75.4249 25.5H51.8089V26.5H75.4249V25.5ZM52.2629 26.2094L64.0709 0.613447L63.1629 0.194551L51.3549 25.7906L52.2629 26.2094ZM63.1629 0.613447L74.9709 26.2094L75.8789 25.7906L64.0709 0.194551L63.1629 0.613447ZM53.8969 25.168H73.3369V24.168H53.8969V25.168ZM73.791 24.4588L64.071 3.36277L63.1628 3.78123L72.8828 24.8772L73.791 24.4588ZM63.1628 3.36277L53.4428 24.4588L54.351 24.8772L64.071 3.78123L63.1628 3.36277ZM97.8613 2.276L98.2605 2.57702L98.8645 1.776H97.8613V2.276ZM81.3733 2.276H80.8733V2.776H81.3733V2.276ZM81.3733 0.943998V0.443998H80.8733V0.943998H81.3733ZM99.5893 0.943998H100.089V0.443998H99.5893V0.943998ZM99.5893 26V26.5H100.089V26H99.5893ZM80.9773 26H80.4773V26.5H80.9773V26ZM80.9773 24.668L80.5781 24.367L80.4773 24.5006V24.668H80.9773ZM98.2573 24.668V25.168H98.7573V24.668H98.2573ZM98.2573 3.968H98.7573V2.4756L97.8582 3.66678L98.2573 3.968ZM82.6333 24.668L82.2342 24.3668L81.6295 25.168H82.6333V24.668ZM97.8613 1.776H81.3733V2.776H97.8613V1.776ZM81.8733 2.276V0.943998H80.8733V2.276H81.8733ZM81.3733 1.444H99.5893V0.443998H81.3733V1.444ZM99.0893 0.943998V26H100.089V0.943998H99.0893ZM99.5893 25.5H80.9773V26.5H99.5893V25.5ZM81.4773 26V24.668H80.4773V26H81.4773ZM81.3765 24.969L98.2605 2.57702L97.4621 1.97497L80.5781 24.367L81.3765 24.969ZM98.7573 24.668V3.968H97.7573V24.668H98.7573ZM97.8582 3.66678L82.2342 24.3668L83.0324 24.9692L98.6564 4.26922L97.8582 3.66678ZM82.6333 25.168H98.2573V24.168H82.6333V25.168ZM108.814 7.28H108.314V7.78H108.814V7.28ZM108.814 0.943998V0.443998H108.314V0.943998H108.814ZM125.014 0.943998H125.514V0.443998H125.014V0.943998ZM125.014 7.28V7.78H125.514V7.28H125.014ZM117.562 7.28V6.78H117.062V7.28H117.562ZM117.562 19.664H117.062V20.164H117.562V19.664ZM125.014 19.664H125.514V19.164H125.014V19.664ZM125.014 26V26.5H125.514V26H125.014ZM108.814 26H108.314V26.5H108.814V26ZM108.814 19.664V19.164H108.314V19.664H108.814ZM116.266 19.664V20.164H116.766V19.664H116.266ZM116.266 7.28H116.766V6.78H116.266V7.28ZM109.314 7.28V0.943998H108.314V7.28H109.314ZM108.814 1.444H125.014V0.443998H108.814V1.444ZM124.514 0.943998V7.28H125.514V0.943998H124.514ZM125.014 6.78H117.562V7.78H125.014V6.78ZM117.062 7.28V19.664H118.062V7.28H117.062ZM117.562 20.164H125.014V19.164H117.562V20.164ZM124.514 19.664V26H125.514V19.664H124.514ZM125.014 25.5H108.814V26.5H125.014V25.5ZM109.314 26V19.664H108.314V26H109.314ZM108.814 20.164H116.266V19.164H108.814V20.164ZM116.766 19.664V7.28H115.766V19.664H116.766ZM116.266 6.78H108.814V7.78H116.266V6.78Z" fill="black"/>
</svg>
