<svg width="157" height="151" viewBox="0 0 157 151" fill="none" xmlns="http://www.w3.org/2000/svg">
<path d="M149.67 68.6338C145.23 71.0938 138.886 72.317 133.587 72.9227C141.989 65.7801 150.148 57.6445 153.446 47.4092C157.921 33.5238 158.055 20.6502 153.87 6.90332C153.49 5.68535 152.447 4.78711 151.174 4.6207C150.005 4.41504 148.78 4.96055 148.061 5.97891C136.96 21.7881 122.282 31.8727 106.239 34.8525C111.033 25.2057 116.321 14.3168 115.182 2.93379C115.049 1.63047 114.162 0.563282 112.97 0.167578C112.69 0.0666019 112.319 0 111.931 0C111.017 0 110.192 0.373828 109.597 0.976953C92.5885 18.2963 79.0141 21.9514 62.6198 22.2352C44.5171 22.5455 27.2303 30.8922 15.196 45.1356C3.26022 59.2566 -2.02259 77.4697 0.70221 95.108C5.07662 123.488 26.2567 144.728 54.6585 149.215C58.2432 149.78 61.7956 150.057 65.2928 150.057C88.62 150.057 109.553 137.721 121.515 116.288C122.879 113.849 125.119 111.458 127.656 109.716C139.204 101.815 147.559 91.5885 152.475 79.3115C153.156 77.6143 153.654 75.5236 154.094 73.6791L154.431 72.2883C154.494 72.0484 154.531 71.7729 154.531 71.4885C154.531 70.4383 154.034 69.5045 153.261 68.9074C152.707 68.4811 152.011 68.227 151.257 68.227C150.676 68.227 150.13 68.3777 149.655 68.6414L149.67 68.6338ZM7.40788 90.2814C10.1479 98.8996 26.9981 101.786 26.9981 101.786C12.9352 116.898 7.40788 90.2814 7.40788 90.2814ZM48.094 101.786C48.094 101.786 82.4784 97.8105 96.1782 85.9647C96.1782 85.9647 76.2241 131.464 48.094 101.786Z" fill="black"/>
</svg>
