<svg width="203" height="201" viewBox="0 0 203 201" fill="none" xmlns="http://www.w3.org/2000/svg">
<path d="M58.957 151.098C58.957 142.518 63.9303 136.694 73.8792 133.628C77.6918 132.467 82.604 131.888 88.6159 131.888H93.5281V157.13H58.957V151.098Z" fill="white"/>
<path d="M50.5332 120.602C50.5332 116.529 52.8954 113.764 57.6176 112.307C59.4277 111.755 61.7605 111.481 64.6137 111.481H66.9465V123.464H50.5355V120.602H50.5332Z" fill="white"/>
<path d="M29.1099 55.0898H4.1582V156.283H29.1099V55.0898Z" fill="white"/>
<path d="M92.8742 55.0898H74.8535V118.855H92.8742V55.0898Z" fill="white"/>
<path d="M92.875 55.0897V44L4.15776 44V55.0897L92.875 55.0897Z" fill="white"/>
<path d="M58.22 60.6348H45.7441V98.0624H58.22V60.6348Z" fill="white"/>
<path d="M48.7356 103.607H36.2051V123.464H48.7356V103.607Z" fill="white"/>
<path d="M66.1953 82.1476V75.8823H36.9551V82.1476H66.1953Z" fill="white"/>
<path d="M66.9434 109.872V103.607H36.2007V109.872H66.9434Z" fill="white"/>
<path d="M66.9434 98.2845V90.519H36.2007V98.2845H66.9434Z" fill="white"/>
<path d="M155.254 55.0898H123.371V154.897H155.254V55.0898Z" fill="white"/>
<path d="M167.582 149.317C167.582 140.737 172.555 134.913 182.504 131.847C186.317 130.687 191.229 130.107 197.241 130.107H202.153V155.35H167.582V149.317Z" fill="white"/>
<path d="M202.385 44H182.979V124.4H202.385V44Z" fill="white"/>
<path d="M162.506 60.2345V44L116.443 44V60.2345L162.506 60.2345Z" fill="white"/>
<path d="M162.506 88.3877V77.269L116.443 77.269V88.3877L162.506 88.3877Z" fill="white"/>
<path d="M178.818 44H167.729V124.4H178.818V44Z" fill="white"/>
</svg>
